<?xml version="1.0" standalone="no"?>
<!DOCTYPE svg PUBLIC "-//W3C//DTD SVG 20010904//EN"
 "http://www.w3.org/TR/2001/REC-SVG-20010904/DTD/svg10.dtd">
<svg version="1.0" xmlns="http://www.w3.org/2000/svg"
 width="405.000000pt" height="405.000000pt" viewBox="0 0 405.000000 405.000000"
 preserveAspectRatio="xMidYMid meet">
<metadata>
Created by potrace 1.14, written by Peter Selinger 2001-2017
</metadata>
<g transform="translate(0.000000,405.000000) scale(0.100000,-0.100000)"
fill="#000000" stroke="none">
<path d="M0 2025 l0 -2025 2025 0 2025 0 0 2025 0 2025 -2025 0 -2025 0 0
-2025z m1114 1180 c33 -49 85 -112 115 -140 157 -141 252 -245 318 -347 104
-160 131 -186 222 -216 75 -25 82 -26 506 -32 469 -8 519 -13 640 -69 189 -88
340 -315 406 -611 15 -71 65 -212 94 -270 13 -25 44 -73 69 -107 25 -33 46
-66 46 -71 0 -15 -55 -23 -110 -17 -100 11 -114 14 -154 31 -22 10 -73 40
-113 66 -39 27 -73 48 -76 48 -2 0 -7 -28 -10 -62 -8 -91 -31 -108 -141 -108
-91 0 -106 8 -106 53 0 21 10 40 35 63 30 28 34 38 29 61 -8 31 -32 63 -48 63
-23 0 -123 53 -174 92 l-53 41 -112 -6 c-62 -4 -149 -13 -194 -21 -45 -8 -119
-20 -164 -26 -44 -6 -131 -25 -192 -42 -102 -28 -128 -31 -282 -34 l-170 -3
-16 -84 c-29 -144 -43 -157 -176 -157 -81 0 -94 2 -103 19 -14 27 4 68 47 106
l34 30 -7 70 c-8 77 -3 69 -124 175 -84 73 -177 190 -191 243 -8 28 -9 88 -5
182 7 135 -5 299 -24 351 -8 20 -16 22 -127 26 -154 5 -199 25 -251 111 -26
42 -33 63 -26 73 5 8 65 40 134 69 129 56 150 72 150 112 0 46 31 101 71 128
34 22 40 30 35 53 -20 109 -28 173 -22 189 7 15 16 9 63 -42 l55 -60 -7 56
c-16 138 22 143 109 14z"/>
</g>
</svg>
