<?xml version="1.0" standalone="no"?>
<!DOCTYPE svg PUBLIC "-//W3C//DTD SVG 20010904//EN"
 "http://www.w3.org/TR/2001/REC-SVG-20010904/DTD/svg10.dtd">
<svg version="1.0" xmlns="http://www.w3.org/2000/svg"
 width="405.000000pt" height="405.000000pt" viewBox="0 0 405.000000 405.000000"
 preserveAspectRatio="xMidYMid meet">
<metadata>
Created by potrace 1.14, written by Peter Selinger 2001-2017
</metadata>
<g transform="translate(0.000000,405.000000) scale(0.100000,-0.100000)"
fill="#000000" stroke="none">
<path d="M0 2025 l0 -2025 2025 0 2025 0 0 2025 0 2025 -2025 0 -2025 0 0
-2025z m1091 1033 c7 -13 14 -57 15 -98 2 -74 28 -190 43 -190 4 0 38 -29 76
-65 43 -41 107 -87 169 -122 151 -85 212 -129 248 -178 18 -24 41 -47 51 -51
10 -3 32 -21 48 -39 23 -25 41 -34 78 -39 33 -4 76 -23 132 -57 102 -61 221
-107 303 -115 87 -9 253 11 381 47 61 16 136 34 167 39 31 5 91 19 132 30 65
17 101 20 256 18 99 -2 180 -6 180 -10 0 -5 -7 -8 -15 -8 -8 0 -15 -4 -15 -10
0 -5 6 -7 14 -4 7 3 20 -2 29 -10 9 -9 21 -16 27 -16 7 0 10 -7 6 -15 -4 -10
1 -14 17 -13 12 0 36 -7 52 -16 17 -9 40 -16 51 -16 13 0 24 -8 27 -20 3 -11
11 -19 19 -18 9 2 12 -8 11 -35 -2 -26 2 -40 12 -43 8 -4 12 -10 9 -15 -3 -5
0 -9 6 -9 6 0 8 -4 5 -10 -3 -5 0 -10 8 -10 8 0 20 -6 26 -14 10 -12 8 -17 -8
-25 -20 -11 -20 -12 5 -38 26 -28 30 -48 14 -58 -6 -4 -9 -12 -8 -18 2 -7 -8
-23 -20 -35 -19 -19 -21 -26 -11 -38 6 -8 7 -14 2 -14 -5 0 -17 -6 -27 -13
-16 -12 -16 -15 -2 -42 9 -17 16 -39 16 -49 0 -33 58 -111 99 -134 73 -41 108
-94 103 -155 -1 -10 2 -26 7 -35 24 -43 -43 -82 -141 -82 -52 1 -80 8 -158 42
-73 32 -106 41 -142 40 -137 -6 -298 1 -318 13 -13 8 -179 38 -215 38 -55 1
-126 -12 -141 -24 -8 -7 -30 -12 -48 -11 -30 1 -33 -1 -29 -19 5 -18 3 -20
-16 -14 -18 5 -24 2 -28 -14 -4 -15 -13 -21 -34 -21 -20 0 -29 -5 -29 -16 0
-15 -2 -15 -25 0 -14 9 -25 12 -25 7 0 -6 -7 -7 -17 -4 -9 4 -14 2 -11 -3 3
-5 -29 -10 -74 -11 -53 -1 -88 -7 -104 -18 -18 -11 -29 -13 -43 -6 -10 6 -21
7 -25 4 -3 -3 -27 -7 -53 -8 -71 -3 -127 -16 -140 -32 -10 -13 -15 -12 -37 2
-14 10 -26 13 -26 7 0 -19 -49 -19 -81 0 -30 18 -33 18 -41 3 -8 -13 -12 -14
-25 -4 -12 10 -16 10 -24 -2 -8 -12 -13 -10 -26 8 -18 27 -33 30 -33 6 0 -15
-2 -15 -19 1 -15 13 -20 14 -24 4 -4 -10 -9 -9 -17 5 -6 9 -15 17 -20 17 -5 0
-6 -8 -3 -17 6 -16 5 -16 -10 -5 -9 8 -21 11 -26 8 -5 -4 -12 -2 -16 4 -3 5
-16 15 -27 21 -18 10 -20 9 -15 -5 9 -22 -2 -20 -31 7 -18 16 -26 19 -29 9 -4
-10 -14 -5 -35 15 -22 21 -31 24 -37 15 -6 -10 -12 -7 -25 12 -20 32 -36 33
-36 4 -1 -21 -2 -20 -17 7 -31 59 -72 89 -57 43 6 -23 6 -23 -22 3 -27 23 -74
30 -74 10 0 -4 -15 -6 -32 -3 -18 2 -43 3 -56 3 -29 -1 -121 -31 -128 -42 -2
-5 -18 -6 -35 -2 -22 4 -33 1 -43 -13 -12 -15 -16 -16 -30 -5 -13 11 -19 11
-31 1 -8 -7 -25 -10 -40 -6 -16 4 -25 2 -25 -5 0 -7 -7 -8 -17 -4 -10 3 -43
11 -73 16 -93 16 -97 18 -167 65 -84 57 -93 68 -93 115 0 55 22 72 84 65 146
-16 178 -18 188 -8 12 12 -26 37 -42 27 -14 -8 -103 41 -135 75 -16 17 -29 44
-32 67 -5 36 -3 40 31 58 34 19 38 19 118 2 135 -28 217 -18 218 26 0 12 0 31
0 42 1 69 -8 128 -21 136 -8 4 -25 30 -38 57 l-23 50 -77 -5 c-58 -4 -84 -2
-107 10 -59 31 -60 41 -11 94 59 64 73 91 52 100 -9 3 -32 -2 -51 -11 -38 -17
-128 -21 -167 -7 -54 21 -114 109 -100 148 4 11 46 33 214 112 65 30 66 31 94
103 41 108 60 124 205 183 63 25 75 34 78 55 6 63 26 138 45 170 38 66 57 80
103 80 35 0 46 -5 55 -22z"/>
</g>
</svg>
